<svg width="60" height="60" viewBox="0 0 60 60" fill="none" xmlns="http://www.w3.org/2000/svg">
<path d="M16.9537 35.9363C16.9537 36.8713 16.6764 37.7853 16.157 38.5627C15.6375 39.34 14.8991 39.9459 14.0353 40.3036C13.1715 40.6613 12.221 40.7548 11.304 40.5723C10.387 40.3897 9.54477 39.9393 8.88378 39.2781C8.22279 38.6168 7.77274 37.7744 7.59057 36.8574C7.40839 35.9403 7.50227 34.9898 7.86032 34.1261C8.21838 33.2625 8.82452 32.5244 9.6021 32.0052C10.3797 31.486 11.2938 31.2091 12.2287 31.2095H16.9537V35.9363Z" fill="black"/>
<path d="M19.3368 35.9363C19.3368 34.6827 19.8348 33.4804 20.7213 32.5939C21.6078 31.7075 22.8101 31.2095 24.0637 31.2095C25.3173 31.2095 26.5196 31.7075 27.4061 32.5939C28.2926 33.4804 28.7906 34.6827 28.7906 35.9363V47.7732C28.7906 49.0269 28.2926 50.2292 27.4061 51.1156C26.5196 52.0021 25.3173 52.5001 24.0637 52.5001C22.8101 52.5001 21.6078 52.0021 20.7213 51.1156C19.8348 50.2292 19.3368 49.0269 19.3368 47.7732V35.9363Z" fill="black"/>
<path d="M24.0637 16.9538C23.1287 16.9538 22.2148 16.6765 21.4374 16.1571C20.66 15.6376 20.0542 14.8992 19.6965 14.0354C19.3387 13.1716 19.2452 12.2211 19.4278 11.3041C19.6103 10.3871 20.0607 9.54486 20.722 8.88387C21.3832 8.22288 22.2256 7.77284 23.1427 7.59066C24.0597 7.40848 25.0102 7.50236 25.8739 7.86041C26.7376 8.21847 27.4757 8.82461 27.9949 9.60219C28.514 10.3798 28.7909 11.2938 28.7906 12.2288V16.9538H24.0637Z" fill="black"/>
<path d="M24.0637 19.3369C25.3173 19.3369 26.5196 19.8349 27.4061 20.7214C28.2926 21.6078 28.7906 22.8101 28.7906 24.0638C28.7906 25.3174 28.2926 26.5197 27.4061 27.4062C26.5196 28.2927 25.3173 28.7907 24.0637 28.7907H12.225C10.9713 28.7907 9.76901 28.2927 8.88255 27.4062C7.99609 26.5197 7.49808 25.3174 7.49808 24.0638C7.49808 22.8101 7.99609 21.6078 8.88255 20.7214C9.76901 19.8349 10.9713 19.3369 12.225 19.3369H24.0637Z" fill="black"/>
<path d="M43.0462 24.0638C43.0462 23.1288 43.3235 22.2149 43.843 21.4375C44.3625 20.6601 45.1008 20.0543 45.9646 19.6965C46.8285 19.3388 47.779 19.2453 48.696 19.4279C49.6129 19.6104 50.4552 20.0608 51.1162 20.722C51.7772 21.3833 52.2272 22.2257 52.4094 23.1428C52.5916 24.0598 52.4977 25.0103 52.1396 25.874C51.7816 26.7377 51.1754 27.4758 50.3978 27.995C49.6203 28.5141 48.7062 28.791 47.7712 28.7907H43.0462V24.0638Z" fill="black"/>
<path d="M40.6631 24.0639C40.6631 25.3175 40.1651 26.5198 39.2786 27.4063C38.3921 28.2927 37.1898 28.7907 35.9362 28.7907C34.6825 28.7907 33.4803 28.2927 32.5938 27.4063C31.7073 26.5198 31.2093 25.3175 31.2093 24.0639V12.2251C31.2093 10.9715 31.7073 9.76916 32.5938 8.8827C33.4803 7.99624 34.6825 7.49823 35.9362 7.49823C37.1898 7.49823 38.3921 7.99624 39.2786 8.8827C40.1651 9.76916 40.6631 10.9715 40.6631 12.2251V24.0639Z" fill="black"/>
<path d="M35.9362 43.0463C36.8712 43.0463 37.7851 43.3236 38.5625 43.8431C39.3399 44.3626 39.9457 45.1009 40.3034 45.9647C40.6611 46.8286 40.7546 47.7791 40.5721 48.6961C40.3896 49.613 39.9392 50.4553 39.2779 51.1163C38.6167 51.7773 37.7743 52.2273 36.8572 52.4095C35.9402 52.5917 34.9897 52.4978 34.126 52.1397C33.2623 51.7817 32.5242 51.1755 32.005 50.3979C31.4859 49.6204 31.2089 48.7063 31.2093 47.7713V43.0463H35.9362Z" fill="black"/>
<path d="M35.9362 40.6632C34.6825 40.6632 33.4803 40.1652 32.5938 39.2788C31.7073 38.3923 31.2093 37.19 31.2093 35.9363C31.2093 34.6827 31.7073 33.4804 32.5938 32.5939C33.4803 31.7075 34.6825 31.2095 35.9362 31.2095H47.7731C49.0267 31.2095 50.229 31.7075 51.1155 32.5939C52.0019 33.4804 52.4999 34.6827 52.4999 35.9363C52.4999 37.19 52.0019 38.3923 51.1155 39.2788C50.229 40.1652 49.0267 40.6632 47.7731 40.6632H35.9362Z" fill="black"/>
</svg>
