<svg width="63" height="60" viewBox="0 0 63 60" fill="none" xmlns="http://www.w3.org/2000/svg">
<path d="M26.5441 27.9506C25.9823 27.9046 25.4192 28.0241 24.9286 28.2934C24.438 28.5628 24.0427 28.9696 23.7944 29.4604C23.5461 29.9513 23.4565 30.5034 23.5371 31.0445C23.6178 31.5856 23.8651 32.0905 24.2466 32.493C24.628 32.8956 25.126 33.1771 25.6752 33.3007C26.2244 33.4243 26.7993 33.3842 27.3246 33.1857C27.85 32.9873 28.3013 32.6396 28.6195 32.1883C28.9377 31.7369 29.1079 31.203 29.108 30.6563C29.1231 30.3153 29.0686 29.9748 28.9479 29.6543C28.8272 29.3337 28.6425 29.0394 28.4043 28.7881C28.1662 28.5369 27.8794 28.3336 27.5602 28.1899C27.241 28.0462 26.8957 27.9649 26.5441 27.9506ZM35.719 27.9506C35.1572 27.9046 34.5941 28.0241 34.1035 28.2934C33.6129 28.5628 33.2176 28.9696 32.9693 29.4604C32.721 29.9513 32.6314 30.5034 32.712 31.0445C32.7927 31.5856 33.04 32.0905 33.4215 32.493C33.803 32.8956 34.3009 33.1771 34.8501 33.3007C35.3993 33.4243 35.9742 33.3842 36.4995 33.1857C37.0249 32.9873 37.4762 32.6396 37.7944 32.1883C38.1126 31.7369 38.2829 31.203 38.2829 30.6563C38.298 30.3153 38.2436 29.9748 38.1228 29.6543C38.0021 29.3337 37.8174 29.0394 37.5792 28.7881C37.3411 28.5369 37.0543 28.3336 36.7351 28.1899C36.4159 28.0462 36.0706 27.9649 35.719 27.9506Z" fill="#152F45"/>
<path d="M47.9354 7.5H14.2522C13.5738 7.50148 12.9024 7.63254 12.2762 7.8857C11.6501 8.13887 11.0815 8.50917 10.603 8.97546C10.1244 9.44175 9.74534 9.99489 9.48732 10.6033C9.22929 11.2117 9.09741 11.8634 9.09918 12.5212V45.4762C9.09741 46.1341 9.22929 46.7858 9.48732 47.3942C9.74534 48.0026 10.1244 48.5557 10.603 49.022C11.0815 49.4883 11.6501 49.8586 12.2762 50.1118C12.9024 50.365 13.5738 50.496 14.2522 50.4975H42.7573L41.425 45.9881L44.6425 48.8887L47.684 51.6188L53.0884 56.25V12.5212C53.0902 11.8634 52.9583 11.2117 52.7003 10.6033C52.4423 9.99489 52.0632 9.44175 51.5846 8.97546C51.1061 8.50917 50.5375 8.13887 49.9114 7.8857C49.2853 7.63254 48.6138 7.50148 47.9354 7.5ZM38.2326 39.3338C38.2326 39.3338 37.3277 38.2856 36.5736 37.3594C38.3957 36.9434 40.0073 35.9159 41.1234 34.4587C40.2189 35.0424 39.2491 35.5249 38.2326 35.8969C37.0633 36.3809 35.8403 36.7326 34.5878 36.945C32.435 37.3293 30.2271 37.3211 28.0774 36.9206C26.8153 36.6812 25.5785 36.3303 24.3823 35.8725C23.7518 35.6374 23.1387 35.3605 22.5473 35.0438C22.4719 34.995 22.3965 34.9706 22.3211 34.9219C22.2833 34.9036 22.2492 34.8788 22.2206 34.8488C21.9794 34.7213 21.7445 34.5831 21.5167 34.4344C22.5924 35.8611 24.1484 36.8784 25.9156 37.3106C25.1615 38.2369 24.2315 39.3338 24.2315 39.3338C22.7383 39.3728 21.2581 39.0553 19.9212 38.4092C18.5843 37.7631 17.4317 36.8083 16.5648 35.6288C16.6464 30.6872 17.8841 25.8282 20.1845 21.4181C22.2088 19.8763 24.6769 18.982 27.2479 18.8587L27.4993 19.1512C25.0804 19.7317 22.8233 20.8219 20.8883 22.3444C20.8883 22.3444 21.4413 22.0519 22.3714 21.6375C24.1782 20.8377 26.1039 20.3195 28.0774 20.1019C28.2181 20.0736 28.3611 20.0573 28.5047 20.0531C30.1892 19.8403 31.8939 19.8239 33.5823 20.0044C36.2376 20.2984 38.808 21.0934 41.1485 22.3444C39.3117 20.8945 37.1783 19.8394 34.8895 19.2487L35.2414 18.8587C37.8124 18.982 40.2804 19.8763 42.3048 21.4181C44.6052 25.8282 45.8429 30.6872 45.9245 35.6288C45.0506 36.8071 43.893 37.7606 42.5524 38.4063C41.2119 39.0521 39.729 39.3704 38.2326 39.3338Z" fill="#152F45"/>
</svg>
