<svg width="57" height="59" viewBox="0 0 57 59" fill="none" xmlns="http://www.w3.org/2000/svg">
<path d="M28.5385 4.18945C23.6232 4.18945 18.8183 5.66623 14.7314 8.43302C10.6445 11.1998 7.45913 15.1324 5.57813 19.7334C3.69714 24.3344 3.20498 29.3972 4.16391 34.2817C5.12283 39.1661 7.48976 43.6527 10.9654 47.1742C14.441 50.6956 18.8692 53.0938 23.6901 54.0653C28.5109 55.0369 33.5078 54.5383 38.0489 52.6325C42.59 50.7267 46.4714 47.4993 49.2022 43.3585C51.933 39.2177 53.3905 34.3494 53.3905 29.3693C53.3905 22.6912 50.7722 16.2866 46.1115 11.5645C41.4508 6.84232 35.1296 4.18945 28.5385 4.18945ZM28.3787 22.9844C27.9832 22.9844 27.6039 23.1436 27.3243 23.4269C27.0447 23.7102 26.8876 24.0945 26.8876 24.4952V33.7398C26.8876 35.4332 26.2236 37.0572 25.0418 38.2546C23.86 39.452 22.2571 40.1247 20.5858 40.1247C18.9145 40.1247 17.3116 39.452 16.1298 38.2546C14.948 37.0572 14.284 35.4332 14.284 33.7398V29.5312H19.0947V33.56C19.0947 33.9606 19.2518 34.3449 19.5314 34.6282C19.811 34.9116 20.1903 35.0707 20.5858 35.0707C20.9813 35.0707 21.3605 34.9116 21.6402 34.6282C21.9198 34.3449 22.0769 33.9606 22.0769 33.56V24.5672C22.1625 22.9347 22.8628 21.3977 24.0336 20.2729C25.2044 19.148 26.7564 18.521 28.3698 18.521C29.9833 18.521 31.5353 19.148 32.706 20.2729C33.8768 21.3977 34.5771 22.9347 34.6627 24.5672V26.3657L31.858 27.283L29.8698 26.3657V24.5672C29.8769 24.3634 29.8437 24.1603 29.7722 23.9697C29.7007 23.7791 29.5923 23.605 29.4533 23.4575C29.3144 23.31 29.1477 23.1922 28.9632 23.111C28.7786 23.0297 28.5799 22.9867 28.3787 22.9844ZM42.4556 33.7758C42.37 35.4082 41.6697 36.9452 40.4989 38.07C39.3282 39.1949 37.7762 39.8219 36.1627 39.8219C34.5493 39.8219 32.9973 39.1949 31.8265 38.07C30.6557 36.9452 29.9554 35.4082 29.8698 33.7758V29.6211L31.858 30.5384L34.6627 29.6211V33.7398C34.6627 34.1405 34.8198 34.5248 35.0994 34.8081C35.3791 35.0914 35.7584 35.2506 36.1538 35.2506C36.5493 35.2506 36.9286 35.0914 37.2082 34.8081C37.4879 34.5248 37.645 34.1405 37.645 33.7398V29.711H42.4556V33.7758Z" fill="#152F45"/>
</svg>
